# xmcd
#
# Track frame offsets:
#	150
#	20454
#	38194
#	55065
#	74764
#	90996
#	108753
#	126014
#	143478
#	161559
#	181856
#	197495
#	216043
#	234022
#	253014
#	282341
#
# Disc length: 3770 seconds
#
# Revision: 1
# Processed by: cddbd v1.5.2PL0 Copyright (c) Steve Scherf et al.
# Submitted via: audiograbber 1.83.01
#
DISCID=d10eb810
DTITLE=Mixed Country Volume 3 - ASK39A
DYEAR=1900
DGENRE=Karaoke
TTITLE0=Alan Jackson - Remember When
TTITLE1=Alan Jackson and Jimmy Buffett - Five O'Clock Somewhere
TTITLE2=Brad Paisley - Celebrity
TTITLE3=Brooks and Dunn - Red Dirt Road
TTITLE4=Brooks and Dunn - You Can't Take the Honky Tonk Out of the Girl
TTITLE5=Buddy Jewel - Help Pour Out the Rain
TTITLE6=Clay Walker - A Few Questions
TTITLE7=Craig Morgan - Every Friday Afternoon
TTITLE8=Darryl Worley - Have You Forgotten?
TTITLE9=Gary Allan - Songs About Rain
TTITLE10=George Strait - Tell Me Something Bad About Tulsa
TTITLE11=George Strait - Desperately
TTITLE12=Jeff Bates - The Love Song
TTITLE13=Josh Turner - Long Black Train
TTITLE14=Kenny Chesney - Big Star
TTITLE15=All Star Karaoke - Data Track
EXTD=
EXTT0=
EXTT1=
EXTT2=
EXTT3=
EXTT4=
EXTT5=
EXTT6=
EXTT7=
EXTT8=
EXTT9=
EXTT10=
EXTT11=
EXTT12=
EXTT13=
EXTT14=
EXTT15=
PLAYORDER=
